<?xml version="1.0" encoding="UTF-8" standalone="no"?>
<!-- Created with Inkscape (http://www.inkscape.org/) -->

<svg
        width="96"
        height="96"
        viewBox="0 0 25.399999 25.4"
        version="1.1"
        id="svg5"
        xmlns="http://www.w3.org/2000/svg"
>
  <defs
     id="defs2">
    <clipPath
       clipPathUnits="userSpaceOnUse"
       id="clipEmfPath1">
      <path
         d="M 0,0 H 113.43411 V 113.43411 H 0 Z"
         id="path824" />
    </clipPath>
    <pattern
       id="EMFhbasepattern"
       patternUnits="userSpaceOnUse"
       width="6"
       height="6"
       x="0"
       y="0" />
    <clipPath
       clipPathUnits="userSpaceOnUse"
       id="clipEmfPath1-9">
      <path
         d="M 0,0 H 113.43411 V 113.43411 H 0 Z"
         id="path840" />
    </clipPath>
    <pattern
       id="EMFhbasepattern-5"
       patternUnits="userSpaceOnUse"
       width="6"
       height="6"
       x="0"
       y="0" />
    <clipPath
       clipPathUnits="userSpaceOnUse"
       id="clipEmfPath1-8">
      <path
         d="M 0,0 H 113.43411 V 113.43411 H 0 Z"
         id="path856" />
    </clipPath>
    <pattern
       id="EMFhbasepattern-7"
       patternUnits="userSpaceOnUse"
       width="6"
       height="6"
       x="0"
       y="0" />
    <pattern
       id="EMFhbasepattern-2"
       patternUnits="userSpaceOnUse"
       width="6"
       height="6"
       x="0"
       y="0" />
    <pattern
       id="EMFhbasepattern-1"
       patternUnits="userSpaceOnUse"
       width="6"
       height="6"
       x="0"
       y="0" />
  </defs>
  <g
     id="layer1"
     transform="translate(-97.61478,-98.741249)">
    <g
       clip-path="url(#clipEmfPath1)"
       id="g830"
       transform="scale(0.26458333)" />
    <g
       clip-path="url(#clipEmfPath1-9)"
       id="g846"
       transform="scale(0.26458333)" />
    <g
       clip-path="url(#clipEmfPath1-8)"
       id="g862"
       transform="scale(0.26458333)" />
    <path
       style="fill:#000e52;fill-opacity:1;fill-rule:evenodd;stroke:none;stroke-width:0.264583"
       d="m 110.94169,115.17936 c -0.59396,0.0364 -0.86358,-0.83909 -0.3495,-1.1414 0.47851,-0.23584 1.0544,-0.0477 1.57037,-0.1079 2.14654,0.0121 4.29676,-0.0242 6.44102,0.018 0.59345,0.12372 0.61813,1.05522 0.0291,1.2043 -1.58294,0.0637 -3.17839,0.008 -4.76606,0.027 -0.97498,0 -1.94995,0 -2.92493,0 z m 0,-2.49753 c -0.59291,0.0396 -0.86469,-0.83892 -0.3495,-1.1394 0.4779,-0.23688 1.05453,-0.048 1.57037,-0.1084 2.14631,0.0142 4.29809,-0.0283 6.44102,0.021 0.59399,0.11633 0.61843,1.0557 0.0291,1.1986 -1.35653,0.0669 -2.73122,0.009 -4.09458,0.0282 -1.19881,0 -2.39761,0 -3.59641,0 z m 0,-2.49754 c -0.5937,0.037 -0.86426,-0.84019 -0.3495,-1.1411 0.47772,-0.23706 1.05467,-0.0496 1.57037,-0.1094 2.14636,0.0148 4.29778,-0.0295 6.44102,0.022 0.59494,0.1169 0.61718,1.05486 0.0291,1.2015 -1.58294,0.0637 -3.17839,0.008 -4.76606,0.027 -0.97498,0 -1.94995,0 -2.92493,0 z m -6.25443,-2.49754 c 0.60786,-0.0311 0.86518,0.87285 0.3229,1.1587 -0.50336,0.34987 -1.1989,-0.30859 -0.8733,-0.8308 0.10838,-0.19752 0.32393,-0.32895 0.5504,-0.3279 z m 0,2.49754 c 1.21477,0.0495 2.19703,-1.28195 1.7911,-2.4287 -0.32067,-1.16584 -1.86339,-1.7106 -2.8415,-0.9948 -0.99417,0.62154 -1.10561,2.18097 -0.2116,2.9393 0.3424,0.30759 0.80028,0.4907 1.262,0.4842 z m -2.50018,6.24384 c -0.48034,0.0177 -0.7196,-0.51294 -0.6266,-0.92982 -0.0387,-0.96649 -0.0216,-2.019 0.622,-2.80876 0.98787,-1.40231 3.16902,-1.67382 4.47153,-0.55898 0.89941,0.69398 1.2635,1.87086 1.16083,2.97358 0.005,0.45773 0.11476,1.15439 -0.4695,1.30798 -0.4949,0.13676 -0.90126,-0.3865 -0.7827,-0.85277 0.008,-0.7979 0.10564,-1.73277 -0.5504,-2.3276 -0.83543,-0.90228 -2.49474,-0.63651 -3.00169,0.48555 -0.4073,0.73799 -0.037,1.61989 -0.27721,2.38532 -0.10515,0.19644 -0.32261,0.32934 -0.54626,0.3255 z m -3.129858,-12.48768 c 7.505838,0 15.011678,0 22.517518,0 0,4.99507 0,9.99015 0,14.98522 -7.50584,0 -15.01168,0 -22.517518,0 0,-4.99507 0,-9.99015 0,-14.98522 z m 23.141898,-1.24877 c -7.95366,0.005 -15.90878,-0.0105 -23.861532,0.008 -0.497218,0.0634 -0.598383,0.63306 -0.53157,1.04376 0.0087,5.31099 -0.01748,10.62409 0.0131,15.93377 0.08719,0.48114 0.639398,0.55716 1.041025,0.4976 7.821797,-0.007 15.645427,0.0147 23.466077,-0.011 0.48167,-0.0869 0.5581,-0.63881 0.4982,-1.041 -0.007,-5.31011 0.0147,-10.62211 -0.011,-15.93103 -0.0564,-0.28423 -0.32373,-0.50358 -0.6143,-0.5 z"
       id="path1357" />
  </g>
</svg>
